<?xml version='1.0' encoding='UTF-8'?>
<!DOCTYPE svg PUBLIC "-//W3C//DTD SVG 1.0//EN" "http://www.w3.org/TR/2001/REC-SVG-20010904/DTD/svg10.dtd">
<svg viewBox="0 0 1320 505" xmlns="http://www.w3.org/2000/svg" xmlns:inkspace="http://www.inkscape.org/namespaces/inkscape" xmlns:xlink="http://www.w3.org/1999/xlink">
  <defs id="defs_block">
    <filter height="1.504" id="filter_blur" inkspace:collect="always" width="1.1575" x="-0.07875" y="-0.252">
      <feGaussianBlur id="feGaussianBlur3780" inkspace:collect="always" stdDeviation="4.2" />
    </filter>
  </defs>
  <title>blockdiag</title>
  <desc />
  <rect fill="rgb(245,236,196)" height="109" style="filter:url(#filter_blur)" width="894" x="370" y="198" />
  <rect fill="rgb(0,0,0)" height="75" stroke="rgb(0,0,0)" style="filter:url(#filter_blur);opacity:0.7;fill-opacity:1" width="250" x="67" y="76" />
  <polygon fill="rgb(0,0,0)" points="192,213 325,258 192,304 59,258 192,213" stroke="rgb(0,0,0)" style="filter:url(#filter_blur);opacity:0.7;fill-opacity:1" />
  <rect fill="rgb(0,0,0)" height="75" stroke="rgb(0,0,0)" style="filter:url(#filter_blur);opacity:0.7;fill-opacity:1" width="250" x="67" y="366" />
  <rect fill="rgb(0,0,0)" height="75" stroke="rgb(0,0,0)" style="filter:url(#filter_blur);opacity:0.7;fill-opacity:1" width="250" x="381" y="221" />
  <rect fill="rgb(0,0,0)" height="75" stroke="rgb(0,0,0)" style="filter:url(#filter_blur);opacity:0.7;fill-opacity:1" width="250" x="695" y="221" />
  <rect fill="rgb(0,0,0)" height="75" stroke="rgb(0,0,0)" style="filter:url(#filter_blur);opacity:0.7;fill-opacity:1" width="250" x="1009" y="221" />
  <rect fill="rgb(255,255,255)" height="75" stroke="rgb(0,0,0)" width="250" x="64" y="70" />
  <text fill="rgb(0,0,0)" font-family="sansserif" font-size="20" font-style="normal" font-weight="normal" x="107" y="118">Generate States</text>
  <polygon fill="rgb(255,255,255)" points="189,207 322,252 189,298 56,252 189,207" stroke="rgb(0,0,0)" />
  <text fill="rgb(0,0,0)" font-family="sansserif" font-size="20" font-style="normal" font-weight="normal" x="123" y="262">More States?</text>
  <rect fill="rgb(255,255,255)" height="75" stroke="rgb(0,0,0)" width="250" x="64" y="360" />
  <text fill="rgb(0,0,0)" font-family="sansserif" font-size="20" font-style="normal" font-weight="normal" x="173" y="408">Fin</text>
  <rect fill="rgb(255,255,255)" height="75" stroke="rgb(0,0,0)" width="250" x="378" y="215" />
  <text fill="rgb(0,0,0)" font-family="sansserif" font-size="20" font-style="normal" font-weight="normal" x="432" y="263">Compute k &amp; ϕ</text>
  <rect fill="rgb(255,255,255)" height="75" stroke="rgb(0,0,0)" width="250" x="692" y="215" />
  <text fill="rgb(0,0,0)" font-family="sansserif" font-size="20" font-style="normal" font-weight="normal" x="723" y="263">Compute BU &amp; nucs</text>
  <rect fill="rgb(255,255,255)" height="75" stroke="rgb(0,0,0)" width="250" x="1006" y="215" />
  <text fill="rgb(0,0,0)" font-family="sansserif" font-size="20" font-style="normal" font-weight="normal" x="1060" y="263">Write Library</text>
  <path d="M 189 145 L 189 199" fill="none" stroke="rgb(0,0,0)" />
  <polygon fill="rgb(0,0,0)" points="189,206 185,199 193,199 189,206" stroke="rgb(0,0,0)" />
  <path d="M 322 252 L 370 252" fill="none" stroke="rgb(0,0,0)" />
  <polygon fill="rgb(0,0,0)" points="377,252 370,248 370,256 377,252" stroke="rgb(0,0,0)" />
  <path d="M 189 298 L 189 352" fill="none" stroke="rgb(0,0,0)" />
  <polygon fill="rgb(0,0,0)" points="189,359 185,352 193,352 189,359" stroke="rgb(0,0,0)" />
  <path d="M 628 252 L 684 252" fill="none" stroke="rgb(0,0,0)" />
  <polygon fill="rgb(0,0,0)" points="691,252 684,248 684,256 691,252" stroke="rgb(0,0,0)" />
  <path d="M 942 252 L 998 252" fill="none" stroke="rgb(0,0,0)" />
  <polygon fill="rgb(0,0,0)" points="1005,252 998,248 998,256 1005,252" stroke="rgb(0,0,0)" />
  <path d="M 1256 252 L 1272 252" fill="none" stroke="rgb(0,0,0)" />
  <path d="M 1272 252 L 1272 188" fill="none" stroke="rgb(0,0,0)" />
  <path d="M 189 188 L 1272 188" fill="none" stroke="rgb(0,0,0)" />
  <path d="M 189 188 L 189 199" fill="none" stroke="rgb(0,0,0)" />
  <polygon fill="rgb(0,0,0)" points="189,206 185,199 193,199 189,206" stroke="rgb(0,0,0)" />
  <rect fill="white" height="24" stroke="rgb(0,0,0)" width="49" x="322" y="214" />
  <text fill="green" font-family="sansserif" font-size="20" font-style="normal" font-weight="normal" x="330" y="236">Yes</text>
  <rect fill="white" height="24" stroke="rgb(0,0,0)" width="38" x="249" y="296" />
  <text fill="red" font-family="sansserif" font-size="20" font-style="normal" font-weight="normal" x="257" y="318">No</text>
  <text fill="rgb(0,0,0)" font-family="sansserif" font-size="28" font-style="normal" font-weight="normal" x="748" y="212">Main Loop</text>
</svg>
